<mxfile host="app.diagrams.net" modified="2023-09-20T16:11:41.793Z" agent="Mozilla/5.0 (Windows NT 10.0; Win64; x64) AppleWebKit/537.36 (KHTML, like Gecko) Chrome/116.0.0.0 Safari/537.36 OPR/102.0.0.0" etag="YI3KtCfn9cy9TU6aw8nd" version="21.7.5" type="github">
  <diagram name="PÃ¡gina-1" id="3HhUbv2gvvBtc6dzkjRt">
    <mxGraphModel dx="753" dy="463" grid="0" gridSize="10" guides="1" tooltips="1" connect="1" arrows="1" fold="1" page="1" pageScale="1" pageWidth="827" pageHeight="1169" background="#000000" math="0" shadow="0">
      <root>
        <mxCell id="0" />
        <mxCell id="1" parent="0" />
        <mxCell id="KjiylXuUT4ZtP1A0rORD-9" style="edgeStyle=orthogonalEdgeStyle;rounded=0;orthogonalLoop=1;jettySize=auto;html=1;exitX=1;exitY=0.5;exitDx=0;exitDy=0;entryX=0;entryY=0.5;entryDx=0;entryDy=0;fontFamily=Helvetica;fontSize=12;fontColor=#FFFFFF;strokeColor=#FFFFFF;endArrow=none;endFill=0;" edge="1" parent="1" source="KjiylXuUT4ZtP1A0rORD-31" target="KjiylXuUT4ZtP1A0rORD-7">
          <mxGeometry relative="1" as="geometry" />
        </mxCell>
        <mxCell id="KjiylXuUT4ZtP1A0rORD-11" style="edgeStyle=orthogonalEdgeStyle;shape=connector;rounded=0;orthogonalLoop=1;jettySize=auto;html=1;exitX=0;exitY=0;exitDx=0;exitDy=0;labelBackgroundColor=default;strokeColor=#FFFFFF;fontFamily=Helvetica;fontSize=12;fontColor=#FFFFFF;endArrow=none;endFill=0;" edge="1" parent="1" source="KjiylXuUT4ZtP1A0rORD-2">
          <mxGeometry relative="1" as="geometry">
            <mxPoint x="120" y="120" as="targetPoint" />
          </mxGeometry>
        </mxCell>
        <mxCell id="KjiylXuUT4ZtP1A0rORD-2" value="AQUARIO" style="rounded=0;whiteSpace=wrap;html=1;fillColor=#000000;strokeColor=#FFFFFF;fontColor=#FFFFFF;" vertex="1" parent="1">
          <mxGeometry x="120" y="170" width="120" height="60" as="geometry" />
        </mxCell>
        <mxCell id="KjiylXuUT4ZtP1A0rORD-16" style="edgeStyle=orthogonalEdgeStyle;shape=connector;rounded=0;orthogonalLoop=1;jettySize=auto;html=1;exitX=0;exitY=0;exitDx=0;exitDy=0;labelBackgroundColor=default;strokeColor=#FFFFFF;fontFamily=Helvetica;fontSize=12;fontColor=#FFFFFF;endArrow=none;endFill=0;" edge="1" parent="1" source="KjiylXuUT4ZtP1A0rORD-4">
          <mxGeometry relative="1" as="geometry">
            <mxPoint x="480.1428571428571" y="79.31745547340029" as="targetPoint" />
          </mxGeometry>
        </mxCell>
        <mxCell id="KjiylXuUT4ZtP1A0rORD-4" value="PEIXE" style="rounded=0;whiteSpace=wrap;html=1;strokeColor=#FFFFFF;fontFamily=Helvetica;fontSize=12;fontColor=#FFFFFF;fillColor=#000000;" vertex="1" parent="1">
          <mxGeometry x="480" y="170" width="120" height="60" as="geometry" />
        </mxCell>
        <mxCell id="KjiylXuUT4ZtP1A0rORD-10" style="edgeStyle=orthogonalEdgeStyle;shape=connector;rounded=0;orthogonalLoop=1;jettySize=auto;html=1;exitX=1;exitY=0.5;exitDx=0;exitDy=0;entryX=0;entryY=0.5;entryDx=0;entryDy=0;labelBackgroundColor=default;strokeColor=#FFFFFF;fontFamily=Helvetica;fontSize=12;fontColor=#FFFFFF;endArrow=none;endFill=0;" edge="1" parent="1" source="KjiylXuUT4ZtP1A0rORD-25" target="KjiylXuUT4ZtP1A0rORD-4">
          <mxGeometry relative="1" as="geometry" />
        </mxCell>
        <mxCell id="KjiylXuUT4ZtP1A0rORD-7" value="COMPORTAR" style="rhombus;whiteSpace=wrap;html=1;rounded=0;strokeColor=#FFFFFF;fontFamily=Helvetica;fontSize=12;fontColor=#FFFFFF;fillColor=#000000;" vertex="1" parent="1">
          <mxGeometry x="304" y="160" width="110" height="80" as="geometry" />
        </mxCell>
        <mxCell id="KjiylXuUT4ZtP1A0rORD-12" value="" style="endArrow=oval;html=1;rounded=0;labelBackgroundColor=default;strokeColor=#FFFFFF;fontFamily=Helvetica;fontSize=12;fontColor=#FFFFFF;shape=connector;endFill=0;" edge="1" parent="1">
          <mxGeometry width="50" height="50" relative="1" as="geometry">
            <mxPoint x="120" y="146" as="sourcePoint" />
            <mxPoint x="160" y="146" as="targetPoint" />
          </mxGeometry>
        </mxCell>
        <mxCell id="KjiylXuUT4ZtP1A0rORD-13" value="" style="endArrow=oval;html=1;rounded=0;labelBackgroundColor=default;strokeColor=#FFFFFF;fontFamily=Helvetica;fontSize=12;fontColor=#FFFFFF;shape=connector;endFill=1;" edge="1" parent="1">
          <mxGeometry width="50" height="50" relative="1" as="geometry">
            <mxPoint x="120" y="120" as="sourcePoint" />
            <mxPoint x="160" y="120" as="targetPoint" />
          </mxGeometry>
        </mxCell>
        <mxCell id="KjiylXuUT4ZtP1A0rORD-14" value="NUMERO" style="text;html=1;align=center;verticalAlign=middle;resizable=0;points=[];autosize=1;strokeColor=none;fillColor=none;fontSize=12;fontFamily=Helvetica;fontColor=#FFFFFF;" vertex="1" parent="1">
          <mxGeometry x="154" y="106" width="80" height="30" as="geometry" />
        </mxCell>
        <mxCell id="KjiylXuUT4ZtP1A0rORD-15" value="NOME" style="text;html=1;align=center;verticalAlign=middle;resizable=0;points=[];autosize=1;strokeColor=none;fillColor=none;fontSize=12;fontFamily=Helvetica;fontColor=#FFFFFF;" vertex="1" parent="1">
          <mxGeometry x="154" y="132" width="60" height="30" as="geometry" />
        </mxCell>
        <mxCell id="KjiylXuUT4ZtP1A0rORD-17" value="" style="endArrow=oval;html=1;rounded=0;labelBackgroundColor=default;strokeColor=#FFFFFF;fontFamily=Helvetica;fontSize=12;fontColor=#FFFFFF;shape=connector;endFill=0;" edge="1" parent="1">
          <mxGeometry width="50" height="50" relative="1" as="geometry">
            <mxPoint x="480" y="146.77" as="sourcePoint" />
            <mxPoint x="530" y="146.77" as="targetPoint" />
          </mxGeometry>
        </mxCell>
        <mxCell id="KjiylXuUT4ZtP1A0rORD-18" value="" style="endArrow=oval;html=1;rounded=0;labelBackgroundColor=default;strokeColor=#FFFFFF;fontFamily=Helvetica;fontSize=12;fontColor=#FFFFFF;shape=connector;endFill=0;" edge="1" parent="1">
          <mxGeometry width="50" height="50" relative="1" as="geometry">
            <mxPoint x="480" y="120.77" as="sourcePoint" />
            <mxPoint x="530" y="120.77" as="targetPoint" />
          </mxGeometry>
        </mxCell>
        <mxCell id="KjiylXuUT4ZtP1A0rORD-19" value="" style="endArrow=oval;html=1;rounded=0;labelBackgroundColor=default;strokeColor=#FFFFFF;fontFamily=Helvetica;fontSize=12;fontColor=#FFFFFF;shape=connector;endFill=0;" edge="1" parent="1">
          <mxGeometry width="50" height="50" relative="1" as="geometry">
            <mxPoint x="480" y="100" as="sourcePoint" />
            <mxPoint x="530" y="100" as="targetPoint" />
          </mxGeometry>
        </mxCell>
        <mxCell id="KjiylXuUT4ZtP1A0rORD-20" value="" style="endArrow=oval;html=1;rounded=0;labelBackgroundColor=default;strokeColor=#FFFFFF;fontFamily=Helvetica;fontSize=12;fontColor=#FFFFFF;shape=connector;endFill=1;" edge="1" parent="1">
          <mxGeometry width="50" height="50" relative="1" as="geometry">
            <mxPoint x="481" y="80" as="sourcePoint" />
            <mxPoint x="530" y="80" as="targetPoint" />
          </mxGeometry>
        </mxCell>
        <mxCell id="KjiylXuUT4ZtP1A0rORD-21" value="CODIGO" style="text;html=1;align=center;verticalAlign=middle;resizable=0;points=[];autosize=1;strokeColor=none;fillColor=none;fontSize=12;fontFamily=Helvetica;fontColor=#FFFFFF;" vertex="1" parent="1">
          <mxGeometry x="527" y="68" width="67" height="26" as="geometry" />
        </mxCell>
        <mxCell id="KjiylXuUT4ZtP1A0rORD-22" value="NOME CIENTIFICO" style="text;html=1;align=center;verticalAlign=middle;resizable=0;points=[];autosize=1;strokeColor=none;fillColor=none;fontSize=12;fontFamily=Helvetica;fontColor=#FFFFFF;" vertex="1" parent="1">
          <mxGeometry x="527" y="88" width="125" height="26" as="geometry" />
        </mxCell>
        <mxCell id="KjiylXuUT4ZtP1A0rORD-23" value="NOME COMUM" style="text;html=1;align=center;verticalAlign=middle;resizable=0;points=[];autosize=1;strokeColor=none;fillColor=none;fontSize=12;fontFamily=Helvetica;fontColor=#FFFFFF;" vertex="1" parent="1">
          <mxGeometry x="527" y="110" width="104" height="26" as="geometry" />
        </mxCell>
        <mxCell id="KjiylXuUT4ZtP1A0rORD-24" value="TAMANHO" style="text;html=1;align=center;verticalAlign=middle;resizable=0;points=[];autosize=1;strokeColor=none;fillColor=none;fontSize=12;fontFamily=Helvetica;fontColor=#FFFFFF;" vertex="1" parent="1">
          <mxGeometry x="527" y="134" width="77" height="26" as="geometry" />
        </mxCell>
        <mxCell id="KjiylXuUT4ZtP1A0rORD-26" value="" style="edgeStyle=orthogonalEdgeStyle;shape=connector;rounded=0;orthogonalLoop=1;jettySize=auto;html=1;exitX=1;exitY=0.5;exitDx=0;exitDy=0;entryX=0;entryY=0.5;entryDx=0;entryDy=0;labelBackgroundColor=default;strokeColor=#FFFFFF;fontFamily=Helvetica;fontSize=12;fontColor=#FFFFFF;endArrow=none;endFill=0;" edge="1" parent="1" source="KjiylXuUT4ZtP1A0rORD-7" target="KjiylXuUT4ZtP1A0rORD-25">
          <mxGeometry relative="1" as="geometry">
            <mxPoint x="414" y="200" as="sourcePoint" />
            <mxPoint x="480" y="200" as="targetPoint" />
          </mxGeometry>
        </mxCell>
        <mxCell id="KjiylXuUT4ZtP1A0rORD-25" value="&lt;b&gt;0:N&lt;/b&gt;" style="text;html=1;align=center;verticalAlign=middle;resizable=0;points=[];autosize=1;strokeColor=none;fillColor=none;fontSize=12;fontFamily=Helvetica;fontColor=#FFFFFF;" vertex="1" parent="1">
          <mxGeometry x="431" y="187" width="37" height="26" as="geometry" />
        </mxCell>
        <mxCell id="KjiylXuUT4ZtP1A0rORD-32" value="" style="edgeStyle=orthogonalEdgeStyle;rounded=0;orthogonalLoop=1;jettySize=auto;html=1;exitX=1;exitY=0.5;exitDx=0;exitDy=0;entryX=0;entryY=0.5;entryDx=0;entryDy=0;fontFamily=Helvetica;fontSize=12;fontColor=#FFFFFF;strokeColor=#FFFFFF;endArrow=none;endFill=0;" edge="1" parent="1" source="KjiylXuUT4ZtP1A0rORD-2" target="KjiylXuUT4ZtP1A0rORD-31">
          <mxGeometry relative="1" as="geometry">
            <mxPoint x="240" y="200" as="sourcePoint" />
            <mxPoint x="304" y="200" as="targetPoint" />
          </mxGeometry>
        </mxCell>
        <mxCell id="KjiylXuUT4ZtP1A0rORD-31" value="&lt;b&gt;1:1&lt;/b&gt;" style="text;html=1;align=center;verticalAlign=middle;resizable=0;points=[];autosize=1;strokeColor=none;fillColor=none;fontSize=12;fontFamily=Helvetica;fontColor=#FFFFFF;" vertex="1" parent="1">
          <mxGeometry x="254" y="187" width="35" height="26" as="geometry" />
        </mxCell>
      </root>
    </mxGraphModel>
  </diagram>
</mxfile>
